<svg
   viewBox="-27.4 19.9 259.6 259.6"
   xmlns="http://www.w3.org/2000/svg"
   xmlns:svg="http://www.w3.org/2000/svg"><g><path
       style="display:inline;fill:#ffffff;stroke-width:0.0762;stroke-dasharray:0.0952503, 0.0952503"
       d="m 13.069663,64.72721 c -0.251085,-1.638664 -0.753257,-4.915992 -1.017558,-8.259429 -0.264301,-3.343436 -0.29073,-6.752843 -0.277515,-8.417938 0.01322,-1.665094 0.06607,-1.585804 0.660763,-0.977901 0.594688,0.607903 1.731158,1.744372 3.449134,3.343411 1.717977,1.599039 4.017346,3.660543 6.766104,5.74854 2.748757,2.087996 5.946731,4.202359 8.973001,5.893894 3.026269,1.691536 5.880658,2.960153 7.625048,3.686981 1.74439,0.726828 2.3787,0.911835 2.748721,1.00434 0.370021,0.0925 0.475741,0.0925 0.475739,-0.1718 -1e-6,-0.264306 -0.10572,-0.792896 -0.779699,-2.259788 -0.673978,-1.466893 -1.916166,-3.871979 -2.894085,-6.382861 -0.97792,-2.510883 -1.691517,-5.127406 -2.19369,-7.532563 -0.502174,-2.405156 -0.792899,-4.598808 -0.991125,-6.633941 -0.198226,-2.035133 -0.303945,-3.911629 -0.330374,-4.915973 -0.02643,-1.004343 0.02643,-1.13649 0.132151,-1.176135 0.105722,-0.03965 0.264297,0.01321 1.123291,0.713624 0.858993,0.700411 2.418334,2.048316 4.46669,3.594492 2.048355,1.546176 4.585589,3.290524 7.307913,4.929203 2.722325,1.638679 5.629575,3.171592 8.536909,4.479891 2.907334,1.308298 5.814584,2.39191 8.959794,3.383046 3.145211,0.991136 6.528189,1.889739 9.171214,2.656217 2.643025,0.766478 4.545953,1.400787 5.827817,1.876531 1.281864,0.475744 1.942603,0.792898 2.325839,0.951478 0.383237,0.15858 0.488954,0.15858 0.58146,0.03964 0.09251,-0.118936 0.171794,-0.356802 -0.06608,-1.070426 -0.237876,-0.713624 -0.792896,-1.902952 -1.546162,-3.198039 -0.753266,-1.295088 -1.704729,-2.695853 -2.775157,-4.09666 -1.070429,-1.400806 -2.259759,-2.801572 -3.26411,-3.885212 -1.00435,-1.08364 -1.823665,-1.850096 -2.246546,-2.286192 -0.422881,-0.436097 -0.449311,-0.541817 -0.264297,-0.555031 0.185015,-0.01321 0.581459,0.06607 2.444811,0.30395 1.863352,0.237874 5.193472,0.634317 9.105165,1.295078 3.911694,0.66076 8.404714,1.585794 12.422118,2.576932 4.017403,0.991138 7.558963,2.04832 10.677733,3.158393 3.11877,1.110073 5.81459,2.272975 8.21974,3.449125 2.40516,1.176149 4.51952,2.365477 6.13176,3.356612 1.61225,0.991135 2.72229,1.784021 3.39626,2.220118 0.67397,0.436096 0.91183,0.515384 1.0572,0.449302 0.14536,-0.06608 0.19822,-0.277509 -0.0661,-1.136501 -0.2643,-0.858992 -0.84575,-2.365475 -1.67831,-4.017371 -0.83255,-1.651896 -1.91617,-3.449107 -2.70907,-4.678111 -0.79291,-1.229003 -1.29507,-1.889742 -1.57259,-2.272986 -0.27752,-0.383244 -0.33037,-0.488947 -0.29073,-0.541807 0.0396,-0.05286 0.1718,-0.05286 1.94265,0.409676 1.77085,0.462536 5.18025,1.387568 8.66905,2.656227 3.48881,1.26866 7.0568,2.880863 10.24165,4.678126 3.18485,1.797264 5.98638,3.779478 8.35188,5.73532 2.36551,1.955842 4.29487,3.8852 5.86747,5.68246 1.5726,1.79726 2.78836,3.462321 3.71342,4.876341 0.92506,1.41402 1.55937,2.576919 1.95582,3.264101 0.39645,0.687183 0.55503,0.898619 0.71361,0.951479 0.15858,0.05286 0.31716,-0.05286 0.44931,-0.277518 0.13215,-0.224658 0.23787,-0.568243 0.21144,-1.71797 -0.0264,-1.149727 -0.18501,-3.105511 -0.48896,-5.153863 -0.30395,-2.048351 -0.75325,-4.189142 -1.1497,-5.629588 -0.39646,-1.440446 -0.74005,-2.180473 -0.7929,-2.524063 -0.0529,-0.34359 0.185,-0.290732 1.26866,0.449324 1.08365,0.740056 3.013,2.167249 4.95563,3.700209 1.94263,1.532961 3.89842,3.171595 6.22429,5.523899 2.32587,2.352304 5.02168,5.418129 7.40041,8.695491 2.37872,3.277362 4.44023,6.766062 6.13176,10.228433 1.69154,3.46237 3.01302,6.898211 3.97772,10.598463 0.9647,3.70025 1.57258,7.66468 1.82366,12.3032 0.25109,4.63853 0.14537,9.95086 -0.2643,16.50559 -0.40967,6.55474 -1.12327,14.35145 -1.55937,19.5582 -0.43609,5.20675 -0.59467,7.82327 -0.64753,10.22843 -0.0529,2.40515 0,4.5988 0.0661,5.81459 0.0661,1.21578 0.14536,1.45365 0.44931,2.31264 0.30395,0.85899 0.83254,2.33905 1.33472,4.03059 0.50217,1.69154 0.9779,3.59447 1.34792,5.57674 0.37003,1.98228 0.63433,4.04378 0.76648,5.9732 0.13215,1.92941 0.13215,3.72661 0.0925,4.66488 -0.0396,0.93828 -0.11893,1.01756 -0.2643,0.97791 -0.14537,-0.0397 -0.3568,-0.19822 -0.89863,-0.75326 -0.54183,-0.55505 -1.414,-1.50651 -1.95582,-2.0219 -0.54182,-0.51538 -0.75325,-0.59467 -0.91183,-0.54181 -0.15858,0.0529 -0.2643,0.23787 -0.25108,1.33474 0.0132,1.09687 0.14536,3.10551 0.10571,5.68247 -0.0396,2.57696 -0.25108,5.72208 -0.75326,9.02587 -0.50218,3.30379 -1.29507,6.76606 -2.48444,10.30772 -1.18936,3.54167 -2.77514,7.16251 -4.12308,9.80553 -1.34795,2.64303 -2.45799,4.30809 -3.46234,5.73532 -1.00435,1.42724 -1.90295,2.61657 -2.45798,3.30375 -0.55504,0.68718 -0.76647,0.87219 -0.92505,0.83254 -0.15858,-0.0396 -0.2643,-0.30394 -0.33038,-1.00435 -0.0661,-0.70041 -0.0925,-1.83688 -0.22466,-2.80159 -0.13216,-0.9647 -0.37003,-1.75758 -0.6079,-2.1276 -0.23788,-0.37002 -0.47574,-0.31717 -0.83255,0.25109 -0.35681,0.56826 -0.83254,1.65187 -1.98227,3.502 -1.14972,1.85013 -2.97336,4.46665 -5.16708,6.96432 -2.19372,2.49766 -4.75738,4.87632 -7.16254,6.83216 -2.40516,1.95584 -4.65167,3.48875 -6.8586,4.84991 -2.20693,1.36116 -4.37415,2.55049 -5.55029,3.15838 -1.17614,0.60789 -1.36115,0.63433 -1.44044,0.50218 -0.0793,-0.13216 -0.0528,-0.42288 0.18502,-1.09686 0.23788,-0.67397 0.68718,-1.73115 0.95149,-2.60335 0.2643,-0.8722 0.34359,-1.55937 0.3568,-2.03512 0.0132,-0.47575 -0.0396,-0.74003 -0.27751,-0.72681 -0.23788,0.0132 -0.66076,0.30394 -1.42724,0.93827 -0.76648,0.63433 -1.87652,1.61222 -3.23769,2.65622 -1.36116,1.04399 -2.97336,2.15403 -4.92921,3.26411 -1.95585,1.11008 -4.25521,2.22011 -6.75288,3.31697 -2.49767,1.09686 -5.19348,2.18047 -7.70436,3.05267 -2.51088,0.8722 -4.83668,1.53294 -6.06568,1.82367 -1.229,0.29072 -1.36114,0.21144 -1.40078,0.0264 -0.0396,-0.18502 0.0132,-0.47573 0.14536,-0.97791 0.13215,-0.50218 0.34359,-1.21577 0.44931,-2.00868 0.10572,-0.79291 0.10572,-1.66509 0.0264,-2.20691 -0.0793,-0.54182 -0.23787,-0.75325 -0.51539,-0.67396 -0.27752,0.0793 -0.67396,0.44931 -1.24222,0.9647 -0.56825,0.51539 -1.30828,1.17613 -2.20691,1.82367 -0.89863,0.64755 -1.95581,1.28185 -2.55049,1.65188 -0.59468,0.37002 -0.72683,0.47574 -0.8722,0.185 -0.14536,-0.29074 -0.30394,-0.9779 -0.54181,-1.70473 -0.23787,-0.72684 -0.55503,-1.4933 -0.80612,-2.06155 -0.25108,-0.56825 -0.43609,-0.93826 -0.63432,-1.05719 -0.19823,-0.11894 -0.40966,0.0132 -0.93827,0.59468 -0.52861,0.58147 -1.37435,1.61222 -2.56372,2.69587 -1.18937,1.08364 -2.722284,2.22011 -3.581263,2.78835 -0.858979,0.56825 -1.043983,0.56825 -1.268646,0.54182 -0.224663,-0.0264 -0.48895,-0.0793 -2.312657,-0.71362 -1.823707,-0.63434 -5.206686,-1.8501 -8.312246,-3.18483 -3.105561,-1.33473 -5.933519,-2.78835 -8.695488,-4.46668 -2.761969,-1.67833 -5.457777,-3.58125 -7.506122,-5.21993 -2.048345,-1.63868 -3.449107,-3.01301 -4.268443,-3.76627 -0.819336,-0.75326 -1.057203,-0.88541 -1.215784,-0.74004 -0.158581,0.14537 -0.237869,0.56824 -0.158576,1.38758 0.07929,0.81935 0.317159,2.03511 0.528601,2.88087 0.211442,0.84577 0.396452,1.32151 0.422878,1.59902 0.02643,0.27752 -0.105721,0.35681 -0.488962,0.23787 -0.383241,-0.11894 -1.017548,-0.4361 -2.312641,-1.18936 -1.295092,-0.75327 -3.25088,-1.9426 -5.418167,-3.46235 -2.167288,-1.51974 -4.545945,-3.36981 -6.818953,-5.43138 -2.273008,-2.06157 -4.44023,-4.33451 -6.224273,-6.56787 -1.784042,-2.23336 -3.184808,-4.42701 -3.990927,-5.61636 -0.80612,-1.18936 -1.017553,-1.37436 -1.202563,-1.25542 -0.185011,0.11893 -0.343591,0.54181 -0.502173,1.29507 -0.158582,0.75327 -0.317159,1.83688 -0.409665,2.68265 -0.09251,0.84577 -0.118935,1.45365 -0.185011,1.82367 -0.06607,0.37002 -0.171794,0.50217 -0.330378,0.42288 -0.158583,-0.0793 -0.370017,-0.37002 -0.951488,-1.16294 -0.581471,-0.79291 -1.532936,-2.08796 -2.695871,-3.87201 -1.162935,-1.78405 -2.53727,-4.05699 -3.792708,-6.51501 -1.255439,-2.45802 -2.391912,-5.10098 -3.31697,-7.79687 -0.925059,-2.69589 -1.638658,-5.44457 -2.154047,-8.0876 -0.515388,-2.64303 -0.832542,-5.18026 -1.017553,-7.58542 -0.185011,-2.40516 -0.23787,-4.6781 -0.185008,-6.38285 0.05286,-1.70475 0.211439,-2.84122 0.237869,-3.54162 0.02643,-0.70039 -0.07929,-0.96469 -0.277518,-0.9779 -0.198227,-0.0132 -0.488954,0.22465 -1.043993,0.79291 -0.555039,0.56825 -1.374352,1.46685 -1.902958,1.95581 -0.528607,0.48896 -0.76647,0.56825 -0.938266,0.37002 -0.171797,-0.19823 -0.277517,-0.67397 -0.29073,-1.85012 -0.01321,-1.17616 0.06608,-3.05265 0.317164,-5.39174 0.25109,-2.33909 0.673963,-5.14062 1.136493,-7.3079 0.462531,-2.16728 0.964691,-3.70019 1.3215,-5.51067 0.356808,-1.81048 0.568245,-3.89841 0.779688,-5.85426 0.211443,-1.95584 0.422879,-3.77948 0.713613,-8.44446 0.290734,-4.66498 0.660747,-12.17096 0.03962,-17.44379 -0.621123,-5.27283 -2.233321,-8.31222 -3.475543,-10.55879 -1.242221,-2.24657 -2.114398,-3.7002 -2.550493,-5.33888 -0.436095,-1.63868 -0.436095,-3.46232 -0.462526,-4.73097 -0.02643,-1.26865 -0.07929,-1.98224 -0.858992,-2.89409 -0.779703,-0.91185 -2.286186,-2.02189 -3.713423,-3.33019 -1.427237,-1.30831 -2.775142,-2.81479 -3.9380738,-4.34775 -1.16291,-1.53294 -2.1408046,-3.09229 -2.9337116,-4.45345 C 5.6560186,100.56634 5.0481409,99.403444 4.7045493,98.689829 4.3609577,97.976215 4.2816692,97.71192 4.3213158,97.566555 c 0.039647,-0.145365 0.1982239,-0.171795 0.7136186,-0.02643 0.5153947,0.145369 1.3875691,0.462523 2.7090898,0.806117 1.3215206,0.343594 3.0922988,0.713607 4.9292068,1.004341 1.836908,0.290734 3.739834,0.502172 5.35208,0.62111 1.612247,0.118937 2.933725,0.145377 3.779491,0.118947 0.845765,-0.0264 1.215778,-0.105727 1.374358,-0.290741 0.158579,-0.185014 0.10572,-0.475739 -0.673982,-1.215793 -0.779703,-0.740053 -2.286185,-1.929382 -3.739852,-3.396268 -1.453667,-1.466886 -2.854431,-3.211234 -3.898426,-4.783836 -1.043994,-1.572603 -1.731162,-2.973368 -2.127614,-3.805917 -0.396452,-0.83255 -0.50217,-1.096845 -0.10571,-0.951474 0.39646,0.145372 1.295064,0.700391 2.563723,1.295074 1.268659,0.594682 2.90729,1.228991 4.268449,1.678305 1.361158,0.449313 2.444769,0.713609 3.118738,0.792898 0.673969,0.07929 0.938265,-0.02643 1.017554,-0.277519 0.07929,-0.25109 -0.02643,-0.647531 -0.607901,-1.532952 -0.581472,-0.885422 -1.638653,-2.259758 -2.682651,-3.938085 -1.043997,-1.678328 -2.074749,-3.660544 -3.05267,-5.880693 -0.977921,-2.220149 -1.902955,-4.678094 -2.550495,-6.620718 -0.64754,-1.942623 -1.017553,-3.369817 -1.202564,-4.083429 -0.18501,-0.713612 -0.18501,-0.713622 -0.436096,-2.352285 z" /></g><g
     style="display:inline"><path
       style="display:inline;fill:#1a1a1a;stroke-width:0.0762;stroke-dasharray:0.0952503, 0.0952503"
       d="m 54.505911,114.97436 c -3.52541,0.19927 -10.576231,0.59779 -16.416195,1.13427 -5.839965,0.53649 -10.468892,1.2109 -13.917686,1.79336 -3.448794,0.58246 -5.717274,1.07295 -7.1581,1.50213 -1.440826,0.42919 -2.053927,0.79705 -2.437125,1.33353 -0.383198,0.53648 -0.536474,1.24155 -0.613114,2.63641 -0.07664,1.39486 -0.07664,3.4794 -0.03066,4.87425 0.04598,1.39484 0.13795,2.09991 0.490498,2.68237 0.352548,0.58247 0.965647,1.04229 1.762707,1.60943 0.79706,0.56714 1.778023,1.24155 2.605735,2.20722 0.827712,0.96567 1.502124,2.22253 2.023276,4.10788 0.521151,1.88535 0.889014,4.39908 1.333527,7.23477 0.444514,2.83568 0.965651,5.99316 1.686071,8.93614 0.72042,2.94298 1.640076,5.67129 2.866319,8.09311 1.226242,2.42182 2.758999,4.53703 4.138519,6.11581 1.379519,1.57878 2.605724,2.62105 4.583048,3.67869 1.977324,1.05763 4.705631,2.13056 7.43402,2.8663 2.728389,0.73574 5.456695,1.13426 8.108443,1.34886 2.651748,0.2146 5.226778,0.24526 8.246403,0.10732 3.019625,-0.13795 6.483656,-0.4445 9.610569,-1.01164 3.126913,-0.56714 5.91653,-1.39483 8.369012,-2.46779 2.452482,-1.07296 4.567686,-2.39114 6.606311,-4.10788 2.038626,-1.71674 4.000558,-3.83195 5.65598,-6.17714 1.655423,-2.34519 3.004248,-4.92022 4.153846,-7.54131 1.149599,-2.62109 2.09991,-5.28809 2.942949,-7.69459 0.843039,-2.40649 1.578762,-4.55235 2.345165,-6.37639 0.766402,-1.82403 1.563436,-3.32613 2.559766,-4.38376 0.99632,-1.05763 2.19187,-1.67073 3.1422,-2.00794 0.95034,-0.33721 1.65541,-0.39853 2.66706,-0.30656 1.01165,0.092 2.32982,0.33721 3.38745,0.7664 1.05763,0.42918 1.85467,1.04229 2.59042,2.09993 0.73574,1.05764 1.41015,2.55974 2.16122,4.56772 0.75107,2.00797 1.57876,4.52169 2.46779,7.02016 0.88903,2.49847 1.83934,4.98153 3.14222,7.57197 1.30289,2.59044 2.95826,5.28809 4.84361,7.66393 1.88535,2.37584 4.00056,4.42974 6.22312,6.0545 2.22257,1.62477 4.55236,2.82032 7.49534,3.78598 2.94299,0.96566 6.49898,1.70138 10.07042,2.11524 3.57143,0.41385 7.15808,0.50581 10.46893,0.38319 3.31085,-0.12263 6.3457,-0.45984 9.31934,-1.10362 2.97364,-0.64378 5.88587,-1.59408 8.29237,-2.83565 2.40649,-1.24158 4.30711,-2.77433 5.90122,-4.58304 1.59411,-1.80871 2.88163,-3.89326 3.89328,-5.9932 1.01164,-2.09994 1.74737,-4.21514 2.40647,-6.63698 0.65911,-2.42183 1.24155,-5.15013 1.77803,-8.04713 0.53648,-2.897 1.02697,-5.96251 1.47148,-8.07777 0.44451,-2.11526 0.84303,-3.28015 1.50213,-4.2918 0.65911,-1.01165 1.57877,-1.87 2.40648,-2.49844 0.82771,-0.62845 1.56343,-1.02696 2.06925,-1.50213 0.50583,-0.47517 0.78172,-1.02696 0.93501,-2.66707 0.15329,-1.64011 0.18395,-4.36842 2e-5,-6.02384 -0.18394,-1.65541 -0.58245,-2.23786 -1.01164,-2.68237 -0.42919,-0.44451 -0.88901,-0.75106 -2.00796,-1.07295 -1.11896,-0.32189 -2.89695,-0.6591 -6.05454,-1.16492 -3.15759,-0.50583 -7.69455,-1.18024 -11.72581,-1.67074 -4.03127,-0.49049 -7.55661,-0.79704 -11.266,-0.99631 -3.70938,-0.19926 -7.60258,-0.29122 -11.69517,-0.21458 -4.09258,0.0766 -8.38429,0.32188 -12.38491,0.72041 -4.00061,0.39852 -7.70988,0.95032 -11.05139,1.70139 -3.3415,0.75108 -6.31505,1.70139 -8.73687,2.6364 -2.42182,0.93501 -4.29178,1.85466 -5.85524,2.4831 -1.56346,0.62845 -2.82032,0.96566 -3.96992,1.19558 -1.1496,0.22992 -2.19187,0.35254 -4.03125,0.39851 -1.83937,0.046 -4.47571,0.0153 -6.39171,-0.046 -1.91599,-0.0613 -3.11154,-0.15329 -4.675001,-0.59781 -1.56346,-0.44451 -3.494736,-1.24154 -6.269116,-2.31451 -2.77438,-1.07296 -6.391685,-2.42179 -10.239021,-3.4181 -3.847336,-0.99632 -7.92447,-1.64008 -12.078365,-2.09992 -4.153895,-0.45984 -8.384304,-0.73574 -10.49955,-0.87369 -2.115246,-0.13795 -2.115276,-0.13795 -5.640686,0.0613 z" /><path
       style="fill:#ffffff;stroke-width:0.0762;stroke-dasharray:0.0952503, 0.0952503"
       d="m 34.610333,124.2324 c -1.686065,0.75106 -3.15754,1.7627 -4.2305,2.83566 -1.072959,1.07297 -1.747371,2.20721 -2.191881,3.69403 -0.44451,1.48682 -0.659095,3.32613 -0.705077,5.56402 -0.04598,2.2379 0.07664,4.87424 0.321888,7.38804 0.245249,2.51379 0.613111,4.90489 1.272218,7.67927 0.659107,2.77437 1.609415,5.93185 2.605739,8.30769 0.996323,2.37584 2.038595,3.9699 3.372136,5.34942 1.333542,1.37952 2.958265,2.54442 4.751644,3.43344 1.79338,0.88902 3.755313,1.50213 5.96255,1.97729 2.207237,0.47517 4.659645,0.81238 7.388037,0.98098 2.728392,0.16861 5.732595,0.16861 8.323027,0.0153 2.590433,-0.15328 4.766946,-0.45983 6.851558,-0.88902 2.084611,-0.42919 4.077193,-0.98098 6.177135,-1.96198 2.099941,-0.981 4.307107,-2.39113 6.146466,-3.95459 1.839359,-1.56346 3.310807,-3.28015 4.521718,-5.01222 1.210911,-1.73206 2.161223,-3.47941 3.019591,-5.42607 0.858367,-1.94666 1.624745,-4.09252 2.237865,-6.22311 0.613119,-2.1306 1.072945,-4.2458 1.348848,-6.51435 0.275903,-2.26855 0.367868,-4.6903 0.122617,-6.79024 -0.245252,-2.09994 -0.827697,-3.87793 -1.839351,-5.38008 -1.011654,-1.50214 -2.452448,-2.72835 -4.215173,-3.69401 -1.762725,-0.96566 -3.847275,-1.67073 -6.33042,-2.26852 -2.483144,-0.59779 -5.364728,-1.08828 -8.139098,-1.47148 -2.77437,-0.3832 -5.441366,-0.6591 -8.1391,-0.8277 -2.697733,-0.16861 -5.426039,-0.22992 -7.970489,-0.18393 -2.544451,0.046 -4.904897,0.19926 -7.403365,0.49049 -2.498468,0.29124 -5.134811,0.72041 -7.403355,1.18025 -2.268544,0.45984 -4.169163,0.95032 -5.855228,1.70139 z"
       transform="translate(0,0.17524996)" /><path
       style="fill:#ffffff;stroke-width:0.0762;stroke-dasharray:0.0952503, 0.0952503"
       d="m 34.610333,124.2324 c -1.686065,0.75106 -3.15754,1.7627 -4.2305,2.83566 -1.072959,1.07297 -1.747371,2.20721 -2.191881,3.69403 -0.44451,1.48682 -0.659095,3.32613 -0.705077,5.56402 -0.04598,2.2379 0.07664,4.87424 0.321888,7.38804 0.245249,2.51379 0.613111,4.90489 1.272218,7.67927 0.659107,2.77437 1.609415,5.93185 2.605739,8.30769 0.996323,2.37584 2.038595,3.9699 3.372136,5.34942 1.333542,1.37952 2.958265,2.54442 4.751644,3.43344 1.79338,0.88902 3.755313,1.50213 5.96255,1.97729 2.207237,0.47517 4.659645,0.81238 7.388037,0.98098 2.728392,0.16861 5.732595,0.16861 8.323027,0.0153 2.590433,-0.15328 4.766946,-0.45983 6.851558,-0.88902 2.084611,-0.42919 4.077193,-0.98098 6.177135,-1.96198 2.099941,-0.981 4.307107,-2.39113 6.146466,-3.95459 1.839359,-1.56346 3.310807,-3.28015 4.521718,-5.01222 1.210911,-1.73206 2.161223,-3.47941 3.019591,-5.42607 0.858367,-1.94666 1.624745,-4.09252 2.237865,-6.22311 0.613119,-2.1306 1.072945,-4.2458 1.348848,-6.51435 0.275903,-2.26855 0.367868,-4.6903 0.122617,-6.79024 -0.245252,-2.09994 -0.827697,-3.87793 -1.839351,-5.38008 -1.011654,-1.50214 -2.452448,-2.72835 -4.215173,-3.69401 -1.762725,-0.96566 -3.847275,-1.67073 -6.33042,-2.26852 -2.483144,-0.59779 -5.364728,-1.08828 -8.139098,-1.47148 -2.77437,-0.3832 -5.441366,-0.6591 -8.1391,-0.8277 -2.697733,-0.16861 -5.426039,-0.22992 -7.970489,-0.18393 -2.544451,0.046 -4.904897,0.19926 -7.403365,0.49049 -2.498468,0.29124 -5.134811,0.72041 -7.403355,1.18025 -2.268544,0.45984 -4.169163,0.95032 -5.855228,1.70139 z"
       transform="matrix(-1,0,0,1,214.15579,0.17524996)" /></g></svg>
